<?xml version="1.0" encoding="UTF-8"?><svg id="Layer_1" xmlns="http://www.w3.org/2000/svg" viewBox="0 0 1920 1080"><defs><style>.cls-1{fill:none;stroke:#000;stroke-width:3.14px;}</style></defs><path d="m1497.39,620.7v-153.14c-10.98,0-19.84,8.91-19.82,19.89l.33,87.32-108.64-111.71h-1.02v152.73c11.09,0,20.06-9.02,20.02-20.08l-.33-85.49,108.86,110.49h.61,0Z"/><path d="m1303.99,620.7h.61v-153.14c-10.98,0-19.84,8.91-19.8,19.89l.33,87.32-108.64-111.71h-1.02v152.73c11.09,0,20.06-9.02,20.02-20.08l-.33-85.49,108.86,110.49h-.02Z"/><path d="m1125.24,615.78l-32.39-77.17-32.39-77.19h-1.22l-32.39,77.19-32.39,77.17c1.5,0,2.96-.11,4.42-.33,5.29-.7,10.28-2.59,14.57-5.51,5.49-3.72,9.87-9.06,12.42-15.51l34-86.84,34,86.84c2.55,6.45,6.93,11.78,12.42,15.51,4.29,2.92,9.28,4.81,14.57,5.51,1.44.22,2.92.33,4.42.33"/><path d="m944.05,595.89v-128.33c-10.98,0-19.89,8.91-19.89,19.89v128.33c10.98,0,19.89-8.91,19.89-19.89"/><path d="m869.45,596.5h-75.45v-128.94c-10.98,0-19.89,8.91-19.89,19.89v128.33h76.06c10.65,0,19.28-8.63,19.28-19.28"/><path d="m442.48,596.5v-45.72h68.26v-19.06h-68.26v-45.11h76.47c0-10.52-8.54-19.06-19.06-19.06h-77.28v148.22h79.96c10.65,0,19.28-8.63,19.28-19.28h-79.37Z"/><path d="m648.46,572.13c-2.07.54-3.77,1.79-4.9,3.42-1.11,1.5-6.88,9.13-11.57,11.17-8.93,3.9-14.42,2.16-19.38.41-3.79-1.33-7.25-2.66-11.72-1.48-8.12,2.13-12.96,10.45-10.8,18.58,1.07,4.05,3.68,7.3,7.06,9.26,3.35,1.96,7.47,2.64,11.52,1.57,12.28-3.25,11.09-19.78,22.15-24.76,8.02-3.62,12.31-2.72,15.75-1.83,2.2.57,4.07,1.13,6.36.54,4.66-1.22,7.43-5.99,6.21-10.65-1.02-3.9-4.55-6.49-8.43-6.49-.74,0-1.48.09-2.22.28m21.87-15.86c-.87,1.96-.94,4.05-.39,5.97.48,1.79,2.85,11.06,1.52,16.01-4.47,16.6-15.92,13.9-20.21,23.65-3.38,7.69.09,16.64,7.78,20.02,1.96.87,4.03,1.29,6.06,1.31h.17c1.87,0,3.7-.37,5.42-1.02,3.62-1.42,6.71-4.2,8.41-8.04,5.12-11.63-8.56-21-5.55-32.78,3.57-13.96,10.32-12.55,12.79-18.08,1.94-4.4-.07-9.54-4.47-11.48-1.13-.5-2.33-.74-3.51-.74-3.35,0-6.53,1.94-7.97,5.21m-109.4-17.01c-2.5,3.38-3.4,7.43-2.85,11.28.57,3.86,2.59,7.47,5.97,9.98,5.38,4.01,11.33,2.77,17.34,1.5,5.36-1.11,10.76-2.24,15.86.39,12.83,6.58,9.93,12.87,14.79,16.49,3.86,2.88,9.32,2.07,12.2-1.79,2.88-3.86,2.07-9.32-1.79-12.2-1.72-1.29-3.75-1.83-5.73-1.7-1.85.07-11.43.3-15.94-2.07-15.2-8.04-10-18.6-18.56-24.98-2.72-2.03-5.9-3.01-9.06-3.01-4.64,0-9.21,2.11-12.2,6.12m114.33-21.74c-4.27,2.24-5.9,7.49-3.68,11.76,1,1.89,2.59,3.27,4.42,4.03,1.7.74,10.43,4.68,13.48,8.8,10.19,13.83.94,21.11,5.88,30.56,3.9,7.43,13.07,10.3,20.5,6.4,3.72-1.96,6.29-5.23,7.45-8.93,1.15-3.7.91-7.86-1.05-11.59-5.9-11.26-21.74-6.4-29.08-16.1-8.69-11.5-3.35-15.9-6.19-21.26-1.57-2.98-4.6-4.68-7.73-4.68-1.37,0-2.74.33-4.03,1m14.16-21.19c-4.31,3.31-8.67,6.62-14.38,6.47-14.42-.37-14.53-7.27-20.47-8.43-4.73-.91-9.3,2.18-10.22,6.9-.91,4.73,2.18,9.3,6.9,10.22,2.09.41,4.16,0,5.9-.96,1.63-.87,10.17-5.25,15.27-5.05,17.19.65,17.08,12.42,27.55,14.44,8.23,1.59,16.2-3.79,17.79-12.04.81-4.12-.15-8.17-2.33-11.39-2.18-3.22-5.58-5.62-9.71-6.4-.89-.17-1.76-.26-2.61-.26-5.34,0-9.5,3.25-13.72,6.47m-95.88-20.34c-4.2.13-7.93,1.96-10.59,4.81-2.66,2.83-4.23,6.69-4.09,10.89.44,12.7,16.81,15.2,19.21,27.12,2.85,14.14-3.88,15.79-3.66,21.85.15,4.81,4.2,8.58,9,8.41,4.81-.17,8.58-4.18,8.41-9-.07-2.13-.91-4.07-2.24-5.53-1.22-1.42-7.38-8.73-8.32-13.77-3.18-16.9,8.32-19.43,7.95-30.08-.28-8.21-7.01-14.68-15.18-14.68h-.52m48.4-15.64c-9.67,8.25-1.39,22.63-9.21,31.93-9.28,11.04-14.75,6.82-19.36,10.76-3.66,3.14-4.09,8.63-.96,12.28,3.14,3.66,8.63,4.09,12.28.96,1.63-1.39,2.61-3.25,2.94-5.21.35-1.83,2.24-11.22,5.58-15.09,11.22-13.02,20.37-5.62,28.49-12.55,6.38-5.45,7.14-15.03,1.68-21.41-2.72-3.2-6.49-4.97-10.37-5.27-.39-.02-.81-.04-1.2-.04-3.48,0-6.99,1.2-9.87,3.64"/><circle class="cls-1" cx="1531.72" cy="608.89" r="13.89"/><path d="m1530.88,607.63c.86,0,1.49-.17,1.87-.5.38-.31.58-.85.58-1.6s-.2-1.26-.58-1.58c-.38-.31-1-.47-1.87-.47h-1.76v4.16h1.76m-1.76,2.87v6.12h-4.17v-16.18h6.37c2.13,0,3.69.36,4.68,1.08,1,.71,1.49,1.84,1.49,3.39,0,1.07-.25,1.95-.77,2.64-.52.67-1.29,1.19-2.34,1.51.58.14,1.08.44,1.54.89.46.46.91,1.15,1.37,2.09l2.28,4.58h-4.44l-1.98-4.02c-.39-.8-.8-1.37-1.21-1.65-.41-.3-.96-.46-1.63-.46h-1.18"/></svg>